<svg xmlns="http://www.w3.org/2000/svg" width="24" height="24" viewBox="0 0 24 24">
  <path id="photo_library_FILL0_wght400_GRAD0_opsz48_1_" data-name="photo_library_FILL0_wght400_GRAD0_opsz48 (1)" d="M87.95,191.09H99.68l-3.81-5.13-3.09,4.05-2.04-2.61ZM85.4,196.4a1.846,1.846,0,0,1-1.8-1.8V177.8a1.846,1.846,0,0,1,1.8-1.8h16.8a1.846,1.846,0,0,1,1.8,1.8v16.8a1.846,1.846,0,0,1-1.8,1.8Zm0-1.8h16.8V177.8H85.4ZM81.8,200a1.846,1.846,0,0,1-1.8-1.8V179.6h1.8v18.6h18.6V200Zm3.6-22.2v0Z" transform="translate(-80 -176)" fill="#2c3bb1"/>
</svg>
