<svg xmlns="http://www.w3.org/2000/svg" width="24" height="24" viewBox="0 0 24 24">
  <path id="live_tv_FILL0_wght400_GRAD0_opsz48_1_" data-name="live_tv_FILL0_wght400_GRAD0_opsz48 (1)" d="M89.09,232.333l8.01-5.667L89.09,221ZM87.5,240v-2.667H81.8a1.649,1.649,0,0,1-1.26-.6,2.027,2.027,0,0,1-.54-1.4V218a2.027,2.027,0,0,1,.54-1.4,1.649,1.649,0,0,1,1.26-.6h20.4a1.649,1.649,0,0,1,1.26.6A2.027,2.027,0,0,1,104,218v17.333a2.027,2.027,0,0,1-.54,1.4,1.649,1.649,0,0,1-1.26.6H96.5V240Zm-5.7-4.667h20.4V218H81.8Zm0,0v0Z" transform="translate(-80 -216)" fill="#da8a4c"/>
</svg>
