<svg xmlns="http://www.w3.org/2000/svg" width="24" height="24" viewBox="0 0 24 24">
  <path id="add_reaction_FILL0_wght400_GRAD0_opsz48" d="M90.909,148.571ZM90.916,160a10.148,10.148,0,0,1-4.241-.9,11.074,11.074,0,0,1-3.471-2.457,11.657,11.657,0,0,1-2.345-3.636A11.76,11.76,0,0,1,83.2,140.486a11.038,11.038,0,0,1,3.475-2.443,10.187,10.187,0,0,1,4.234-.9,10.06,10.06,0,0,1,2.411.286,11.292,11.292,0,0,1,2.226.8v1.914a8.786,8.786,0,0,0-4.63-1.286,8.761,8.761,0,0,0-6.568,2.829,10.079,10.079,0,0,0,0,13.758,9.009,9.009,0,0,0,13.132,0,9.612,9.612,0,0,0,2.7-6.876,10.28,10.28,0,0,0-.177-1.925,9.133,9.133,0,0,0-.532-1.789h1.745a11.779,11.779,0,0,1-2.591,11.789,11,11,0,0,1-3.464,2.451A10.164,10.164,0,0,1,90.916,160Zm8.993-17.143v-2.571H97.455v-1.714h2.455V136h1.636v2.571H104v1.714h-2.455v2.571Zm-5.018,4.2a1.388,1.388,0,0,0,1.043-.45,1.605,1.605,0,0,0,0-2.186,1.434,1.434,0,0,0-2.086,0,1.6,1.6,0,0,0,0,2.186A1.388,1.388,0,0,0,94.891,147.057Zm-7.964,0a1.388,1.388,0,0,0,1.043-.45,1.605,1.605,0,0,0,0-2.186,1.434,1.434,0,0,0-2.086,0,1.6,1.6,0,0,0,0,2.186A1.388,1.388,0,0,0,86.927,147.057Zm3.982,7.771a5.83,5.83,0,0,0,3.314-1.014,5.761,5.761,0,0,0,2.2-2.757H85.4a5.951,5.951,0,0,0,2.209,2.757A5.767,5.767,0,0,0,90.909,154.829Z" transform="translate(-80 -136)" fill="#138216"/>
</svg>
